<svg xmlns="http://www.w3.org/2000/svg" width="785.263" height="194.266" viewBox="0 0 207.767 51.399"><path d="M0 25.7V0h207.767v51.4H0zm204.263-.25V3.337H3.505V47.56h200.758zM22.07 32.951c-1.167-.315-2.086-.799-2.883-1.518l-.656-.594.865-1.051.866-1.052.661.566c.765.655 2.193 1.236 3.036 1.236.764 0 1.668-.386 1.894-.809.1-.185.18-.55.18-.811 0-.93-.32-1.156-3.395-2.4-2.562-1.037-3.53-2.2-3.53-4.24 0-.981.075-1.297.47-1.968 1.488-2.532 5.07-3 8.25-1.078.481.291.876.597.876.68 0 .154-1.519 2.282-1.63 2.282-.033 0-.303-.184-.597-.409-.79-.602-1.949-1.085-2.613-1.088-.827-.005-1.61.52-1.754 1.171-.177.806.302 1.314 1.853 1.964 3.963 1.662 4.694 2.202 5.084 3.753.918 3.652-2.78 6.496-6.977 5.366zm71.384.074c-1.125-.22-2.805-1.11-3.607-1.913-1.428-1.428-2.166-3.59-2.018-5.914.116-1.833.463-2.922 1.334-4.196 2.384-3.482 7.855-3.998 11.26-1.06l.71.613-.859.778c-1.196 1.083-1.28 1.118-1.705.719-1.224-1.15-3.817-1.48-5.368-.683-.958.493-1.82 1.533-2.107 2.543-.11.386-.199 1.228-.198 1.87.002 1.907.894 3.462 2.474 4.31.948.508 3.016.505 4.13-.006l.793-.363v-2.189h-3.337v-2.503h6.174v6.462l-.99.528c-1.916 1.021-4.564 1.419-6.686 1.004zm18.723-.232c-1.553-1.307.127-3.625 1.946-2.684.253.13.55.434.659.675.764 1.678-1.2 3.192-2.605 2.009zm18.491.232c-1.125-.22-2.805-1.11-3.608-1.914-2.186-2.186-2.7-6.038-1.223-9.172 2.063-4.38 8.395-5.264 11.893-1.661.338.348.61.677.605.732-.01.113-1.917 1.685-2.043 1.685-.045 0-.329-.231-.63-.513-.994-.928-1.772-1.232-3.158-1.233-2.75-.002-4.424 1.841-4.39 4.835.022 1.88.75 3.187 2.223 3.989a4.568 4.568 0 005.21-.566l.763-.671 1.017.86c.56.474 1.018.914 1.018.979 0 .257-1.673 1.661-2.44 2.048-1.457.734-3.412.959-5.237.602zm24.206.001c-1.907-.374-4.057-2.057-4.881-3.823-1.453-3.11-.903-6.763 1.357-9.022 1.042-1.04 2.324-1.737 3.664-1.99 3.733-.702 7.003.834 8.516 4.002.591 1.239.598 1.277.598 3.422 0 2.145-.007 2.184-.598 3.422-1.522 3.186-4.874 4.73-8.656 3.99zm3.744-2.914c.863-.41 1.723-1.302 2.15-2.229.498-1.08.498-3.288 0-4.369-.425-.923-1.28-1.81-2.163-2.245-.943-.464-2.92-.444-3.822.038-1.611.862-2.487 2.409-2.487 4.392 0 2.298 1.188 4.021 3.236 4.693.648.213 2.377.056 3.086-.28zm-117.052.802l-2.325-7.385-1.656-5.256 1.505-.049c.827-.026 1.535-.018 1.571.019.037.036.688 2.214 1.446 4.839.759 2.625 1.421 4.814 1.471 4.864.05.05.64-1.993 1.31-4.54.669-2.548 1.253-4.764 1.297-4.925.069-.252.296-.292 1.646-.292.861 0 1.566.032 1.566.07 0 .12 2.535 9.856 2.578 9.903.022.024.664-2.13 1.427-4.788.762-2.657 1.437-4.914 1.5-5.015.073-.117.652-.166 1.61-.135l1.498.049-1.97 6.258a1527.775 1527.775 0 00-2.31 7.384l-.342 1.127h-2.751l-1.309-4.965c-.72-2.73-1.362-5.066-1.428-5.19-.124-.232-.247.18-1.95 6.524l-.975 3.63h-2.74l-.669-2.127zm23.69.75c.274-.756 1.497-4.08 2.718-7.384l2.22-6.007 1.43-.048c1.244-.042 1.445-.01 1.548.25.101.254 3.444 9.233 4.941 13.273l.48 1.294H75.51l-.499-1.46-.498-1.46-2.847-.046-2.846-.046-.48 1.506-.482 1.506h-3.102zm8.339-4.201c0-.09-1.865-5.502-1.917-5.564-.045-.055-1.923 5.329-1.922 5.51 0 .07.864.125 1.92.125 1.055 0 1.919-.032 1.919-.071zm100.796-1.848V18.19h1.46l1.46.001 2.237 4.18c1.401 2.62 2.295 4.121 2.393 4.022.087-.086 1.121-1.949 2.298-4.138l2.14-3.982 1.516-.048 1.515-.048v14.865h-2.999l-.043-4.504-.045-4.505-1.752 3.093-1.752 3.093-.995-.048-.994-.049-1.76-3.13-1.758-3.128-.045 4.59-.044 4.588h-2.832v-7.426z" fill="#fff"/></svg>