<svg width="138" height="51" xmlns="http://www.w3.org/2000/svg"><path d="M0 50.155h7.419l1.192-11.117h5.6l1.047 11.117h8.68L18.2 0H5.67L0 50.155zm9.12-19.378L11.364 11.4h.235l2.079 19.378h-4.56zm15.958 19.378h10.36c5.847 0 10.158-3.378 10.158-9.78V9.634C45.596 3.516 41.285 0 35.576 0H25.077v50.155zm7.979-7.979V7.98h1.12c1.744 0 2.3 1.056 2.3 2.476v28.969c0 1.627-.488 2.752-2.3 2.752h-1.12zm18.54 7.98h8.584l2.795-30.513h.35l2.72 30.512h7.882L79.793 0h-7.259l-2.163 28.133h-.205L67.653.008H59l-2.513 28.407h-.137L54.042.008h-8.446l6.001 50.147zm29.336 0H98.03v-8.093h-8.405V28.49h6.624v-8.16h-6.624V8.014h8.265V0H80.933v50.155zm17.098 0h17.099v-8.093h-8.406V28.49h6.625v-8.16h-6.625V8.014h8.266V0H98.03v50.155zm18.238-.01h8.565v-17.3l1.459-4.92 3.061 22.23h8.573l-5.365-30.95L137.782 0h-8.555l-4.385 20.679V0h-8.564v50.145h-.009v.001z" fill="#00BFFF" fill-rule="evenodd"/></svg>