<svg xmlns="http://www.w3.org/2000/svg" width="772.729" height="574.947" viewBox="0 0 204.451 152.121"><path d="M16.97 132.237v-19.884H0V0h94.963c65.443 0 95.292.033 96.021.107 3.95.4 7.017 1.723 9.345 4.033 1.906 1.891 3.117 4.215 3.852 7.394l.228.99.033 43.09c.024 31.876.002 43.344-.084 44.062-.28 2.33-1.156 4.769-2.372 6.61-2.334 3.534-6.131 5.604-11.119 6.061-.809.074-21.9.108-67.626.108H56.79l-19.833 19.833c-10.908 10.909-19.867 19.833-19.91 19.833-.042 0-.076-8.947-.076-19.884zm159.421-39.922c4.683-.272 7.6-1.367 9.927-3.726 1.788-1.812 2.708-3.78 3.191-6.827.17-1.077.183-2.429.183-20.73 0-18.56-.01-19.635-.189-20.698-.37-2.201-.975-3.858-1.927-5.281-1.934-2.892-4.85-4.465-9.488-5.116-1.352-.19-8.769-.19-10.12 0-3.884.546-6.414 1.688-8.41 3.796-1.634 1.724-2.53 3.743-3.013 6.79-.168 1.057-.18 2.486-.18 20.407 0 15.45.026 19.483.135 20.342.634 4.974 3.018 8.268 7.137 9.86 1.728.667 3.635 1.053 5.813 1.179 1.997.114 5.002.116 6.941.004zM170.983 80.2a1.746 1.746 0 01-1.066-1.145c-.074-.266-.107-5.944-.104-18.023.004-18.744-.013-18.084.47-18.628.433-.487.892-.587 2.682-.59.965 0 1.84.047 2.064.115.462.138.942.617 1.103 1.1.085.253.116 5.13.114 18.095-.002 17.002-.01 17.764-.19 18.156-.416.906-.867 1.065-3.028 1.065-1.149 0-1.757-.043-2.045-.145zm-76.7 11.83c2.565-.369 5.092-1.682 7.125-3.702l1.08-1.074.027 2.173.028 2.172h12.877l.01-25.021c.005-15.985-.029-25.39-.094-26.044-.13-1.306-.54-2.983-.994-4.066-1.256-3.002-3.794-5.083-7.364-6.038-2-.535-2.753-.6-7.148-.616-3.302-.012-4.316.018-5.265.153-3.866.551-6.472 1.853-8.332 4.165-.72.894-1.264 1.927-1.703 3.233-.697 2.074-.722 2.346-.772 8.357l-.044 5.393h12.487l.002-4.268c.002-4.01.014-4.295.202-4.707.156-.346.298-.483.666-.646.42-.186.641-.203 2.226-.174 1.896.034 2.18.101 2.55.602.107.145.237.444.288.665.05.22.094 2.704.095 5.52l.002 5.118-6.517 2.793c-3.585 1.537-6.917 3.019-7.406 3.294-2.877 1.617-4.382 3.653-5.078 6.868l-.269 1.241v8.23c0 8.824.002 8.873.533 10.58.321 1.036.863 2.076 1.488 2.863 1.929 2.423 5.354 3.504 9.3 2.936zm3.262-11.622c-.87-.21-1.426-.75-1.657-1.61-.07-.26-.097-2.022-.077-5.07l.032-4.671.297-.644c.445-.964.947-1.347 3.622-2.761 1.296-.686 2.382-1.247 2.414-1.247.03 0 .056 3.408.056 7.572v7.572l-.775.358c-1.332.615-2.71.792-3.912.501zM40.038 91.362c4.995-.747 8.186-2.701 10.005-6.127.522-.983 1.002-2.361 1.305-3.745.207-.95.215-1.293.252-10.439.034-8.358.02-9.572-.127-10.454-.35-2.111-.933-3.313-2.246-4.63-1.026-1.029-2.025-1.622-3.614-2.144l-.851-.28.763-.332c3.213-1.397 5.04-3.98 5.64-7.973.229-1.516.227-14.404-.001-15.986-.235-1.63-.614-2.893-1.276-4.256-1.723-3.547-4.736-5.518-9.71-6.353-.97-.163-2.146-.183-12.09-.215l-11.015-.035v73.22l10.913-.04c9.52-.036 11.059-.063 12.053-.211zm-9.47-21.587v-9.879l2.887.032c2.73.03 2.911.043 3.297.251.514.277.809.59 1.043 1.11.171.38.186.955.213 8.163.025 6.754.008 7.836-.13 8.377-.201.783-.526 1.212-1.148 1.518-.472.232-.587.242-3.326.274l-2.837.032zm0-30.37v-9.17l2.632.051c2.868.056 3.265.125 3.845.669.163.152.394.484.513.737.213.453.217.572.246 7.447.025 6.065.008 7.07-.131 7.61-.2.784-.52 1.206-1.145 1.516-.474.235-.586.244-3.226.277l-2.735.033zm39.768 30.223V47.656l.69-.524c1.98-1.505 4.826-2.367 8.204-2.484l.664-.024.027-7.284.026-7.284-.946.001c-3.69.003-6.087 1.575-8.522 5.59l-.654 1.08v-6.16H56.944V91.6h13.392zm74.23 21.895c.039-.042 2.119-13.579 4.621-30.081l4.618-30.44.067-.435h-6.26c-3.442 0-6.268.012-6.28.026-.01.014-1.115 9.18-2.452 20.37-1.338 11.19-2.462 20.378-2.498 20.42-.035.042-1.167-9.113-2.514-20.344l-2.45-20.42-6.683-.027-6.683-.026.06.384c.035.211 2.112 13.905 4.618 30.43 2.506 16.526 4.58 30.085 4.61 30.133.066.107 17.127.117 17.226.01z" fill="#cdcdcd"/></svg>