<svg width="158" height="50" xmlns="http://www.w3.org/2000/svg"><path d="M33.805.624C34.938.62 36.075.62 37.212.616c-.012 4.07.042 8.138-.025 12.207-.028 2.626-1.137 5.425-3.543 6.728-2.721 1.385-6.17 1.377-8.837-.128-2.27-1.328-3.37-4.06-3.312-6.608.012-4.065.004-8.13.008-12.195h3.308c.008 3.52-.008 7.034.004 10.553.058 1.617.062 3.374 1.034 4.756 1.307 1.798 4.048 1.968 5.892.955 1.667-1.005 2.023-3.102 2.056-4.892.024-3.788 0-7.58.008-11.368zm14.762.075c2.866-.852 6.063-.335 8.614 1.19-.012 1.192-.012 2.378-.017 3.565-2.142-1.596-4.99-2.77-7.65-1.84-1.15.343-1.902 1.724-1.348 2.841.455 1.067 1.692 1.377 2.672 1.774 2.109.84 4.54 1.29 6.103 3.072 2.01 2.428 1.501 6.749-1.443 8.225-3.312 1.716-7.452 1.17-10.627-.616-.005-1.224-.005-2.444-.017-3.668 2.39 1.84 5.707 2.932 8.634 1.811 1.596-.579 1.799-3.06.352-3.92-2.246-1.36-5.004-1.637-7.158-3.18-1.894-1.36-2.452-4.06-1.667-6.186.588-1.542 2.006-2.613 3.552-3.068zM79.312.327c4.508 4.135 8.89 8.41 13.315 12.637V.62h3.309c0 6.654.008 13.311-.005 19.965-4.511-4.284-8.898-8.696-13.435-12.956.004 4.177-.004 8.35.004 12.522-1.07.008-2.137.008-3.204.012.004-6.612-.03-13.224.016-19.836zm25.312.289c3.99 0 7.976.02 11.963-.012.024 1.005.024 2.01.024 3.014-2.861 0-5.719-.004-8.58.004v4.644c2.551.008 5.099 0 7.65.008v2.994c-2.551.004-5.099 0-7.65 0 0 1.964-.004 3.933.008 5.897 2.853-.012 5.71 0 8.564-.008.004 1.034.008 2.071.008 3.105H104.62c.005-6.55-.008-13.096.005-19.646zm21.68.769c3.102-1.794 7.063-1.244 10.107.41.057 1.215.057 2.435.053 3.651-2.208-1.654-5.181-2.837-7.894-1.753-1.538.546-1.716 2.87-.318 3.672 2.278 1.306 5.061 1.571 7.19 3.176 2.862 2.133 2.652 7.298-.62 8.948-3.312 1.737-7.492 1.224-10.66-.612-.004-1.207-.004-2.415-.02-3.622 2.307 1.65 5.243 2.77 8.088 2.001 1.05-.265 2.014-1.207 1.865-2.365.02-.885-.6-1.663-1.377-2.027-2.233-1.157-4.867-1.484-6.893-3.051-2.643-2.043-2.47-6.736.48-8.428zm19.849.066c3.077-1.86 7.104-1.36 10.143.34.013 1.203.013 2.402.021 3.605-2.187-1.654-5.173-2.774-7.848-1.683-1.489.58-1.663 2.833-.298 3.652 2.332 1.356 5.235 1.571 7.369 3.304 1.836 1.447 2.204 4.13 1.493 6.248-.666 1.886-2.564 2.981-4.43 3.387-2.86.59-5.917.062-8.46-1.37-.041-1.227-.041-2.455-.045-3.684 2.406 1.787 5.686 2.932 8.61 1.803 1.591-.579 1.835-3.018.4-3.903-2.307-1.443-5.218-1.65-7.385-3.362-2.547-2.043-2.427-6.612.43-8.337zM.31.62c3.465.203 7.067-.512 10.42.583 3.727 1.195 4.256 7.022.857 8.916 3.097 1.282 3.808 5.673 1.683 8.105-1.307 1.554-3.44 1.968-5.372 2.026-2.53.041-5.057 0-7.588.012C.31 13.716.306 7.166.31.62m3.312 3.002c-.004 1.72-.004 3.44 0 5.161 1.779-.087 3.623.248 5.36-.252 2.096-.608 2.113-4.06.029-4.69-1.758-.446-3.598-.14-5.389-.219m0 8.06a836.13 836.13 0 000 5.578c2.039-.145 4.235.401 6.166-.455 1.914-.934 1.74-4.118-.265-4.834-1.902-.595-3.94-.161-5.9-.29zM66.576.62h3.308v19.642h-3.308V.62zM53.021 31.117c3.089-1.956 7.208-1.41 10.26.352a202.95 202.95 0 00-.013 3.548c-2.233-1.634-5.301-2.895-7.99-1.642-1.327.633-1.5 2.605-.305 3.461 2.448 1.555 5.702 1.63 7.815 3.755 1.414 1.335 1.65 3.465 1.286 5.284-.422 1.82-2.01 3.176-3.759 3.693-3.06.943-6.5.434-9.254-1.166.008-1.212.012-2.423 0-3.635 2.328 1.75 5.491 2.899 8.353 1.873 1.728-.463 2.072-3.117.509-3.986-2.312-1.443-5.252-1.625-7.378-3.411-2.41-2.039-2.253-6.422.476-8.126zM13.44 30.29h3.303c.009 6.476.004 12.955.004 19.435H13.44c0-6.48-.004-12.96 0-19.435zm12.71-.455c4.4 4.201 8.788 8.42 13.23 12.58.016-4.078.003-8.151.007-12.224 1.1-.004 2.204-.004 3.308-.004.009 6.628-.008 13.253.009 19.881-4.487-4.255-8.887-8.6-13.336-12.893-.02 4.18 0 8.365-.008 12.55-1.071 0-2.138 0-3.205-.004-.004-6.629.004-13.257-.004-19.886zm46.525.455h3.308v19.435h-3.308c0-6.48-.004-12.955 0-19.435zm12.823 0c2.664 0 5.33 0 7.998-.008 3.03-.037 6.161 1.513 7.642 4.222 1.592 2.845 1.695 6.38.703 9.444-1.059 3.222-4.21 5.5-7.568 5.715-2.923.15-5.851.02-8.779.062 0-6.48-.004-12.96.004-19.435m3.408 2.998v13.435c2.37-.087 4.92.364 7.125-.744 2.117-1.092 3.089-3.573 3.027-5.856.087-2.307-.728-4.896-2.854-6.078-2.228-1.245-4.87-.6-7.298-.757zm20.365-2.998c3.962-.004 7.923 0 11.89 0 0 1-.005 2.001-.005 3.002a1976.36 1976.36 0 00-8.576 0v4.54c2.547.005 5.098.005 7.65.005v2.894c-2.552 0-5.103-.004-7.65.004v5.988c2.857.008 5.719 0 8.58.004v2.998c-3.966 0-7.927.004-11.889 0V30.29zm21.611-.004c2.684.025 5.367-.025 8.047.016 2.274.058 4.685 1.37 5.342 3.668.588 1.998.447 4.367-.835 6.075-.79 1.017-2.06 1.406-3.25 1.732a703.139 703.139 0 016.918 7.932c-1.307.025-2.61.025-3.912.004-2.216-2.634-4.474-5.231-6.703-7.849-.736.004-1.468.004-2.196.004-.008 2.618-.004 5.236-.004 7.853-1.137.004-2.274.004-3.411.004 0-6.48-.009-12.96.004-19.44m3.411 2.904a898.01 898.01 0 000 5.78c1.766-.099 3.61.278 5.322-.272 2.113-.848 2.159-4.239.079-5.144-1.72-.658-3.61-.273-5.4-.364z" fill="#00BFFF" fill-rule="evenodd"/></svg>