<svg xmlns="http://www.w3.org/2000/svg" width="778.497" height="872.142" viewBox="0 0 205.977 230.754"><path d="M16.986 198.957V167.16H0l.165-36.49.165-36.49 2.104-4.196c1.158-2.307 3.387-5.477 4.955-7.045 4.725-4.725 5.262-4.81 30.521-4.81h21.92l.691-3.514c.98-4.976 4.318-11.487 7.421-14.473 1.454-1.399 4.28-3.307 6.278-4.24l3.634-1.696h50.269l3.634 1.696c1.999.933 4.824 2.841 6.278 4.24 3.104 2.986 6.442 9.497 7.421 14.473l.692 3.514h21.92c25.258 0 25.796.085 30.52 4.81 1.568 1.568 3.798 4.738 4.955 7.045l2.104 4.195.165 36.49.165 36.491h-16.985v63.594h-7.268V157.47h16.352v-30.61c0-29.104-.057-30.723-1.175-32.914-.647-1.267-2.155-3.164-3.352-4.215l-2.177-1.911H165.29c-29.638 0-29.42-.031-31.477 4.496-1.043 2.299-1.122 4.61-1.134 33.509l-.013 31.04H147.2v73.888h-8.479V167.16H124.76l.168-40.527.168-40.527 1.817-2.566c1.86-2.627 5.033-4.527 8.7-5.21 2.037-.38 2.039-.383 1.657-3.167-.774-5.648-4.201-10.366-9.388-12.922-2.741-1.35-3.142-1.373-24.909-1.373H80.85l-2.899 1.514c-5.532 2.89-8.477 7.045-9.29 13.109l-.323 2.405 2.71.62c3.81.872 6.427 2.558 8.259 5.32l1.575 2.375.168 40.475.168 40.474H67.255v63.594h-8.48v-73.89h14.568l-.167-31.645c-.186-35.272-.082-34.398-4.347-36.422-1.883-.894-4.98-.985-28.536-.838l-26.423.164-2.25 2.422c-1.236 1.333-2.581 3.24-2.989 4.24-.55 1.349-.739 9.656-.735 32.25l.005 30.435h16.353v73.284h-7.268zm20.592 1.817v-29.98h7.268v59.96h-7.268zm61.777-9.085v-39.064h7.268v78.129h-7.268zm61.776 9.085v-29.98h7.268v59.96h-7.268zM37.821 103.93c-2.795-2.794-2.795-5.2 0-7.994 1.483-1.484 2.6-2.06 3.997-2.06 2.693 0 6.056 3.364 6.056 6.057 0 2.693-3.363 6.056-6.056 6.056-1.397 0-2.514-.575-3.998-2.059zm122.341-.605c-1.483-1.484-2.059-2.601-2.059-3.998 0-1.396.576-2.513 2.06-3.997 1.483-1.484 2.6-2.06 3.997-2.06 2.693 0 6.056 3.364 6.056 6.057 0 1.397-.575 2.514-2.059 3.998-1.484 1.483-2.6 2.059-3.997 2.059-1.397 0-2.514-.576-3.998-2.06zM98.386 92.423c-2.794-2.794-2.794-5.2 0-7.995 1.484-1.484 2.6-2.06 3.997-2.06 2.693 0 6.057 3.364 6.057 6.057 0 2.693-3.364 6.057-6.057 6.057-1.397 0-2.513-.575-3.997-2.06zm0-15.142c-2.794-2.794-2.794-5.2 0-7.994 1.484-1.484 2.6-2.06 3.997-2.06 2.693 0 6.057 3.364 6.057 6.057 0 2.693-3.364 6.057-6.057 6.057-1.397 0-2.513-.576-3.997-2.06zM38.874 67.175c-4.51-1.378-8.106-4.48-10.476-9.032-2.051-3.94-2.01-10.646.091-14.764 5.024-9.847 17.967-12.475 26.116-5.302 4.034 3.55 5.682 7.262 5.682 12.798 0 6.978-3.042 11.961-9.253 15.16-2.973 1.53-9.024 2.098-12.16 1.14zm9.683-7.558c3.811-1.971 5.903-6.95 4.737-11.28-1.991-7.396-11.279-9.894-16.685-4.488-8.129 8.129 1.682 21.077 11.948 15.768zm112.659 7.558c-4.51-1.378-8.106-4.48-10.476-9.032-2.051-3.94-2.01-10.646.091-14.764 5.024-9.847 17.967-12.475 26.116-5.302 4.034 3.55 5.682 7.262 5.682 12.798 0 6.978-3.041 11.961-9.253 15.16-2.973 1.53-9.024 2.098-12.16 1.14zm9.683-7.558c3.812-1.971 5.903-6.95 4.737-11.28-1.991-7.396-11.279-9.894-16.685-4.488-8.128 8.129 1.683 21.077 11.948 15.768zM97.483 43.67C88.308 40.735 81.79 31.9 81.79 22.4c0-6.558 3.749-14.021 8.983-17.885C94.141 2.03 100.177 0 104.2 0c6.772 0 14.452 3.984 18.212 9.449 4.004 5.82 5.124 12.904 3.078 19.477-3.715 11.935-16.216 18.516-28.007 14.744zm13.76-10.1c4.118-2.547 6.481-7.11 6.148-11.871-.714-10.217-11.554-15.816-20.234-10.45-4.118 2.546-6.481 7.11-6.148 11.87.714 10.218 11.554 15.816 20.234 10.45z" fill="#f86cb5"/></svg>