<svg xmlns="http://www.w3.org/2000/svg" viewBox="0 0 100 100" fill="#71bf58" stroke-width=".422"><path d="M40.9 64c1.5 0 2.7-.9 3.2-2.3l3.1-8.6V18.9c0-3.5-2.8-6.3-6.3-6.3s-6.3 2.8-6.3 6.3v34.2l3.1 8.6c.5 1.4 1.8 2.3 3.2 2.3zm-3.3-41.2h1.8v26.6l-1.8.9V22.8zm6.6 0v27.6l-1.8-.9V22.8h1.8zm-2 35.6c-.3-.3-.8-.5-1.2-.5s-.9.2-1.2.5L38 53.6l3-1.6 3 1.6-1.8 4.8zm-1.3-42.8c1.8 0 3.3 1.5 3.3 3.3v.9h-6.6v-.9c0-1.8 1.5-3.3 3.3-3.3zm12.6 7.3v5.9c0 .6.2 1.2.6 1.7-.8 3.6-2.6 16 2.7 31.6.4 1 1.4 1.7 2.6 1.8h.1c1.3 0 2.3-.7 2.7-1.7 5.8-15.1 3.6-28 2.7-31.7.4-.4.6-1 .6-1.6v-5.6c0-.2 0-.4-.1-.6 2.1-1.6 4.4-4.9 3-9.8C66.8 6.5 61.7 1.6 58.1 1c-.9-.2-1.8.3-2.2 1-.5.8-.4 1.7.2 2.4.4.5.8 1.5.6 2.4-.1.8-.6 1.5-1.3 2l-.1.2c-3.3 2.6-5 5.7-4.8 8.8.2 2 1.2 3.8 3 5.1zm9.1.8v4.6h-6.2v-4.6h6.2zm-3.1 37.2c-4.8-14.3-3.2-26-2.5-29.5h5.1c.7 3.5 2.6 15.6-2.6 29.5zm-2.4-49.5c1.5-1 2.4-2.4 2.6-4 .1-.8.1-1.7-.1-2.5 2.3 1.5 5 4.8 6.1 8.8 1.3 4.6-1.9 6.7-2.7 7.1h-7.3c-1.3-.8-2.1-1.9-2.2-3.3-.2-2 1.1-4.2 3.6-6.1z"/><path d="M61.2 19.9c.2 0 .4 0 .6-.1 1.3-.5 2.2-1.5 2.6-2.7.9-3-1.4-6.7-1.7-7.1-.4-.7-1.4-.9-2.1-.4-.7.4-.9 1.4-.4 2.1.6.9 1.7 3.3 1.3 4.6-.1.3-.3.6-.9.8-.8.3-1.1 1.2-.8 2 .2.5.8.8 1.4.8zm20.6 4.6H71.4c-.8 0-1.5.7-1.5 1.5s.7 1.5 1.5 1.5h10.4c1.6 0 2.9 1.3 2.9 2.9v1.9H71.3c-.8 0-1.5.7-1.5 1.5s.7 1.5 1.5 1.5h13.3v34.5H15.3V35.3h13.1c.8 0 1.5-.7 1.5-1.5s-.7-1.5-1.5-1.5H15.3v-1.9c0-1.6 1.3-2.9 2.9-2.9h10.3c.8 0 1.5-.7 1.5-1.5s-.7-1.5-1.5-1.5H18.2c-3.2 0-5.9 2.6-5.9 5.9v43.8c0 3.2 2.6 5.9 5.9 5.9h21.7v3.6c0 4.4-2.3 8.4-6.1 10.6-1 .6-1.5 1.8-1.2 2.9s1.4 1.9 2.5 1.9H65c1.1 0 2.2-.7 2.5-1.9.3-1.1-.2-2.3-1.2-2.9C62.4 92.1 60 88 60 83.7V80h21.8c3.2 0 5.9-2.6 5.9-5.9V30.4c0-3.2-2.6-5.9-5.9-5.9zM63.3 95.9H36.9C40.7 93 43 88.4 43 83.5V80h14.1v3.5c0 4.9 2.3 9.5 6.2 12.4zM81.8 77H18.2c-1.6 0-2.9-1.3-2.9-2.9v-1.4h69.4v1.4c0 1.6-1.3 2.9-2.9 2.9z"/></svg>