<svg width="193" height="51" xmlns="http://www.w3.org/2000/svg" xmlns:xlink="http://www.w3.org/1999/xlink"><defs><path id="a" d="M0 0h192.642v50.155H0z"/></defs><g fill="none" fill-rule="evenodd"><mask id="b" fill="#fff"><use xlink:href="#a"/></mask><path d="M93.115 13.679c-1.592 0-2.45.176-3.74.765-2.347 1.072-4.112 2.828-5.686 5.657l-.492.884.063-1.57c.035-.864.093-2.478.13-3.585l.066-2.015h-.338c-.433 0-14.007 2.704-14.416 2.872-.268.11-.308.227-.308.878 0 .67.034.758.308.816.17.035.793.157 1.385.27 1.2.23 1.558.415 2.052 1.068.913 1.204 1.1 3.329 1.09 12.327-.008 7.355-.16 11.02-.51 12.165-.43 1.405-1.192 2.123-2.518 2.37-.429.08-.997.192-1.26.248l-.479.1-.04.944c-.03.663.011.978.136 1.057.097.062 4.74.099 10.317.081l10.138-.033.04-1.058c.022-.582-.008-1.058-.069-1.058-.787-.002-3.2-.331-3.58-.49-1.145-.476-1.698-1.499-1.937-3.574-.28-2.438-.446-8.498-.37-13.467.079-5.017.08-5.038.395-5.374.734-.785 2.595-1.397 4.26-1.4 1.34-.003 2.716.34 4.186 1.043.704.337 1.354.584 1.443.55.184-.07 3.51-8.83 3.51-9.243 0-.614-1.888-1.228-3.776-1.228" fill="#00BFFF" mask="url(#b)"/><path d="M52.232 46.538c-3.774 1.104-6.477-2.442-7.523-9.873-.338-2.402-.337-8.945.003-11.692.738-5.975 2.608-9.01 5.555-9.014 1.327-.003 2.065.319 3.103 1.35 2.472 2.456 3.644 7.147 3.625 14.52-.014 5.882-.608 9.586-1.936 12.092-.642 1.213-1.85 2.33-2.827 2.617zm16.056-17.526c-.726-6.12-3.338-10.598-7.651-13.118-4.792-2.801-12.073-2.964-17.247-.384-3.736 1.861-6.788 5.45-8.145 9.57-1.398 4.252-1.398 9.833.002 14.174.896 2.78 2.113 4.81 3.989 6.654 2.248 2.212 5.193 3.627 8.56 4.115 1.205.174 5.008.178 6.254.005.59-.08 1.61-.303 2.267-.492 6.103-1.755 10.27-6.413 11.7-13.08.348-1.629.493-5.575.27-7.444z" fill="#00BFFF" mask="url(#b)"/><path d="M18.501 5.02h4.404c5.06 0 5.888.106 7.68.981 2.598 1.27 4.496 3.783 6.151 8.146.675 1.777.667 1.771 2.165 1.317l.995-.3-.09-6.43c-.051-3.537-.132-6.682-.183-6.989l-.09-.557-19.306-.039C9.609 1.127.714 1.146.46 1.191L0 1.273l.081 2.284 1.47.175c1.907.228 3.046.762 3.721 1.743 1.524 2.212 1.8 5.223 1.797 19.541-.003 15.246-.321 18.948-1.794 20.871-.76.99-1.375 1.316-3.095 1.634-2.243.414-2.169.362-2.169 1.518 0 .642.059.99.175 1.037.252.101 24.947.108 25.21.007.338-.129.318-1.946-.023-2.121-.134-.07-.97-.235-1.854-.367-.886-.132-1.863-.35-2.17-.483-1.618-.701-2.517-2.64-2.856-6.148-.242-2.517-.43-7.153-.43-10.58v-3.146l1.503.046c3.203.097 4.86.265 5.529.56 1.45.637 2.622 2.418 3.23 4.906l.325 1.323 1.142.04 1.143.041V17.41l-1.142.04-1.143.042-.333 1.322c-.646 2.562-1.702 4.137-3.253 4.852-.631.29-1.079.37-2.589.461a74.836 74.836 0 01-3.119.115l-1.294.008-.002-4.146c-.001-4.155.223-12.98.366-14.352l.075-.732m173.238 28.89c-1.158-2.323-3.29-3.912-7.756-5.783-3.647-1.527-5.477-2.586-6.595-3.812-.906-.994-1.172-1.797-1.084-3.286.081-1.372.417-2.19 1.276-3.11 1.101-1.18 2.616-1.594 4.43-1.21 2.975.631 4.884 2.698 6.528 7.064.587 1.557.656 1.607 1.71 1.214l.666-.248-.022-1.795c-.014-.987-.063-3.06-.113-4.606l-.088-2.81-.498-.212c-2.72-1.155-7.914-1.875-11.297-1.565-3.842.352-6.664 1.575-8.835 3.83-2.16 2.243-3.134 4.874-2.961 7.996.143 2.582.904 4.438 2.492 6.067 1.472 1.509 2.708 2.224 6.25 3.612 5.72 2.24 7.235 3.566 7.221 6.327-.01 2.332-1.243 4.039-3.49 4.834-.804.284-2.836.281-3.921-.004-2.841-.751-5.019-3.22-6.874-7.798l-.474-1.174-.56.026c-.305.014-.728.108-.938.209l-.381.182.036 2c.02 1.101.074 3.42.122 5.156l.087 3.154.635.273c1.3.56 5.204 1.418 7.658 1.681.303.032 1.976.043 3.718.024 3.023-.033 3.24-.053 4.76-.451 4.488-1.175 7.393-3.683 8.68-7.49.396-1.168.45-1.526.507-3.266.076-2.318-.138-3.522-.89-5.03m-45.451-6.594l-2.66.043.003-.567c.001-.31.09-1.13.2-1.822.887-5.63 3.018-9.008 5.686-9.01 2.454-.003 3.967 3.325 4.28 9.416l.09 1.728-2.47.085c-1.357.047-3.666.104-5.129.127zm10.349-12.299c-3.78-1.9-9.618-1.761-13.887.324-4.045 1.978-6.83 5.276-8.383 9.931-.81 2.426-1.065 4.377-.984 7.52.052 1.988.142 3.015.348 3.934 1.595 7.136 6.477 11.988 13.302 13.223 1.503.272 4.915.277 6.434.011 2.168-.38 4.67-1.347 6.247-2.415 1.924-1.304 3.899-3.264 3.899-3.872 0-.37-.662-1.225-.95-1.225-.125 0-.66.28-1.187.623-1.883 1.219-3.683 1.72-6.187 1.72-3.454 0-5.643-.863-7.843-3.089-.974-.986-1.374-1.519-1.88-2.495-1.107-2.148-1.707-4.62-1.796-7.413l-.039-1.207 10.182-.034 10.181-.036.046-.69c.025-.38-.025-1.372-.11-2.207-.636-6.198-3.139-10.466-7.393-12.603zm-46.891 32.377c-.174-.471-.38-16.913-.296-23.481l.067-5.127.897-.273c.6-.183 1.303-.274 2.123-.274 1.145 0 1.294.035 2.26.529 2.328 1.192 3.923 4.154 4.666 8.658.274 1.664.307 6.212.06 8.207-.608 4.9-2.154 8.853-4.21 10.769-.82.765-1.586 1.17-2.569 1.363-.714.14-.928.144-2.218.038-.549-.043-.67-.108-.78-.409zm10.194-33.009c-.825-.168-1.57-.202-3.176-.147-2.413.082-4.074.44-5.876 1.26-.6.271-1.12.495-1.16.495-.04 0-.035-3.598.012-7.995.068-6.195.05-7.994-.08-7.997-.457-.007-14.744 2.678-14.9 2.8-.117.092-.167.39-.14.84.046.783-.048.72 1.693 1.107.525.115 1.138.34 1.364.499.581.408 1.065 1.29 1.4 2.557.264.998.299 1.712.422 8.464.124 6.893.099 13.98-.092 26.963l-.08 5.393 1.024.229c1.481.332 5.723 1.029 7.11 1.166 2.036.204 6.781.175 8.292-.048 6.561-.974 11.506-4.723 13.812-10.471.61-1.523 1.197-3.869 1.403-5.612.24-2.044.106-6.123-.258-7.765-1.393-6.293-5.381-10.64-10.77-11.738z" fill="#00BFFF" mask="url(#b)"/></g></svg>