<svg xmlns="http://www.w3.org/2000/svg" width="759.635" height="131.909" viewBox="0 0 200.987 34.901"><path d="M.621 34.815c-.002-.048-.102-.15-.224-.226a.808.808 0 01-.304-.379c-.13-.38-.12-32.507.01-32.807C.291.97.382.958 3.194.98c2.437.02 2.53.025 2.717.164.106.08.214.22.24.31.025.092.049 3.091.053 6.665.006 6.35.01 6.5.14 6.57.09.048 2.668.071 7.868.071s7.778-.023 7.867-.071c.13-.07.134-.216.134-6.64 0-7.222-.028-6.752.414-6.98.166-.086.616-.104 2.694-.104h2.495l.268.269.268.268-.017 16.35-.018 16.35-.143.194a.957.957 0 01-.293.263c-.083.037-.15.107-.15.155 0 .068-.515.087-2.407.087h-2.407l-.225-.19a10.92 10.92 0 01-.352-.31c-.122-.116-.127-.392-.127-6.94 0-5.661-.016-6.834-.094-6.899-.068-.056-2.21-.073-7.984-.06l-7.89.018-.034 6.828c-.026 5.08-.056 6.864-.116 6.967-.045.076-.177.2-.293.276-.117.075-.212.176-.212.224 0 .067-.543.086-2.483.086S.623 34.882.62 34.815zm33.662-.017c0-.057-.024-.104-.053-.104-.03 0-.154-.091-.276-.203-.329-.3-.305-.583.122-1.465.19-.392.345-.732.345-.758 0-.025.218-.499.483-1.052.266-.554.483-1.023.483-1.043 0-.044.264-.612.752-1.618.193-.398.351-.749.351-.779 0-.052.162-.4.923-1.991.175-.367.32-.684.32-.705 0-.021.188-.435.418-.92.439-.922.533-1.124.896-1.916l.46-1c.221-.479.302-.655.692-1.517.077-.171.311-.668.52-1.104.21-.436.459-.98.553-1.207.095-.228.295-.662.444-.966.15-.303.373-.769.496-1.034.123-.266.252-.53.286-.587a1.67 1.67 0 00.104-.207c.111-.285.425-.997.685-1.551.651-1.393.79-1.709.79-1.792 0-.048.056-.16.125-.251.068-.09.182-.304.254-.475.18-.43.567-1.265 1.027-2.22.213-.442.388-.825.388-.849 0-.024.159-.375.353-.78.456-.954.682-1.445.682-1.486 0-.018.244-.543.544-1.167.299-.623.565-1.203.592-1.287.027-.085.183-.425.347-.757.164-.332.343-.711.398-.842.054-.131.2-.338.321-.46.217-.217.238-.222.826-.222.715 0 .75.025 1.128.827l.596 1.265c.193.411.352.772.352.803 0 .03.12.3.267.597.454.923.818 1.708.867 1.871.027.086.197.458.378.828.182.37.354.746.382.836.029.091.266.614.528 1.162.26.549.475 1.014.475 1.035 0 .036.214.496.732 1.574.128.268.233.517.233.555 0 .076.19.456.358.717.06.095.133.25.16.345.028.095.217.517.421.939.205.422.372.788.372.814 0 .027.144.35.32.717.68 1.42.99 2.095.99 2.15 0 .03.14.338.31.684.172.345.311.656.311.69 0 .065.579 1.282.692 1.455.077.118.16.301.36.794.151.372.359.83.803 1.772.156.33.283.622.283.65 0 .03.107.272.237.54.72 1.483.866 1.807.867 1.91a.3.3 0 00.1.195c.056.046.164.251.241.456.077.205.249.59.382.854.133.265.243.51.243.544 0 .034.248.58.551 1.213.304.633.552 1.167.552 1.185 0 .05.243.58.629 1.377.185.383.337.72.337.751 0 .031.124.315.276.631.356.743.356.928 0 1.284-.152.152-.276.304-.276.337 0 .034-1.08.061-2.449.061-1.346 0-2.448-.026-2.448-.057 0-.032-.159-.16-.353-.286-.219-.142-.388-.314-.447-.455-.052-.125-.126-.246-.163-.27-.037-.022-.107-.172-.154-.332a2.295 2.295 0 00-.243-.524c-.087-.128-.158-.268-.159-.31 0-.042-.14-.367-.31-.72-.17-.355-.31-.67-.31-.7 0-.031-.17-.413-.379-.849-.209-.435-.38-.83-.38-.875 0-.046-.061-.163-.137-.26-.076-.096-.138-.213-.138-.26 0-.046-.064-.166-.143-.266l-.143-.182H42.671l-.193.186c-.107.102-.194.237-.194.302a.306.306 0 01-.103.202.315.315 0 00-.104.211c0 .07-.17.48-.379.912-.209.432-.38.807-.38.833 0 .025-.135.324-.302.664-.166.34-.323.702-.349.805a1.354 1.354 0 01-.18.375c-.074.103-.134.218-.134.256 0 .038-.075.23-.167.429-.197.425-.539.8-.85.931-.124.052-.224.128-.224.167 0 .05-.773.073-2.415.073-2.1 0-2.414-.014-2.414-.103zm20.336-11.65c.026-.132-.235-.775-.825-2.032a16.157 16.157 0 01-.336-.74c0-.027-.157-.38-.737-1.65l-.535-1.172c-.087-.19-.286-.618-.443-.952-.157-.335-.285-.63-.285-.657 0-.027-.186-.429-.414-.892-.227-.463-.414-.87-.414-.906 0-.035-.074-.214-.166-.398a28.984 28.984 0 01-.347-.73c-.143-.314-.213-.397-.338-.397-.127 0-.199.091-.377.475-.121.262-.22.495-.22.52 0 .023-.183.438-.407.92-.223.484-.553 1.205-.732 1.603-.179.398-.384.846-.455.996-.072.15-.13.295-.13.323 0 .03-.122.31-.27.626-.383.812-1.11 2.447-1.11 2.494 0 .022-.123.29-.272.597-.15.306-.293.625-.318.71a7.3 7.3 0 01-.245.587c-.193.422-.247.7-.155.793.024.024 2.173.037 4.775.028 4.572-.015 4.732-.02 4.756-.145zm17.324 11.69c0-.033-.105-.123-.233-.2-.494-.29-.46 1.038-.44-16.962l.018-16.152.275-.282.275-.281 7.933.023 7.933.024.621.155c.552.138.941.265 1.85.604.272.101.704.326 1.185.615.152.092.351.2.444.24.093.041.299.194.458.341.159.147.41.344.556.437.312.2 1.473 1.374 1.473 1.49 0 .043.12.21.266.37.145.161.359.463.474.672l.384.69c.254.448.665 1.538.808 2.138.297 1.247.31 1.357.308 2.552-.002 1.334-.06 1.699-.483 3-.266.82-.803 1.962-1.009 2.148-.07.063-.127.143-.127.176 0 .373-2.633 3.022-3.003 3.022-.032 0-.148.085-.257.19-.109.104-.638.409-1.176.677-.719.36-.984.525-.999.627-.018.122.144.468.77 1.637.1.185.21.372.243.414.034.041.334.603.666 1.248s.64 1.22.687 1.276c.045.057.13.197.186.31.32.645 1.05 2.016 1.122 2.104.046.057.201.337.345.621.145.285.374.72.511.966s.358.654.49.905c.626 1.18.94 1.765 1.035 1.93.628 1.088.716 1.421.47 1.786l-.47.465c0 .069-.58.087-2.753.087h-2.753l-.28-.251c-.238-.214-.667-1.025-2.946-5.57-1.467-2.925-2.804-5.567-2.972-5.87-.167-.304-.322-.637-.343-.74a.55.55 0 00-.135-.267.288.288 0 01-.095-.191c0-.062-.095-.214-.21-.337l-.21-.224h-2.573c-2.404 0-2.58.008-2.686.126-.105.116-.115.656-.115 6.355v6.228l-.31.31c-.17.172-.31.338-.31.371 0 .033-1.102.06-2.449.06-1.407 0-2.449-.026-2.449-.062zm14.865-18.645c1.26-.394 2.524-1.498 3.024-2.64.066-.151.149-.327.183-.39.301-.552.383-2.212.147-2.975-.269-.872-.589-1.409-1.237-2.075-.36-.371-1.038-.87-1.18-.87-.032 0-.097-.047-.144-.104a.314.314 0 00-.21-.104.919.919 0 01-.32-.098c-.564-.286-.993-.311-5.23-.313-2.238 0-4.107.023-4.154.053-.065.041-.085 1.13-.088 4.776-.002 2.597-.002 4.762-.001 4.81.001.074.834.085 4.433.064 3.775-.022 4.483-.042 4.777-.134zm17.277 18.622c0-.048-.092-.139-.204-.202-.447-.255-.416 1.016-.416-16.858V1.523l.265-.279.265-.279 7.616.002c4.758 0 7.796.027 8.097.07a11.09 11.09 0 013.173.974c.55.262 1.384.775 1.67 1.028.128.111.257.203.288.203.07 0 1.663 1.579 1.663 1.648 0 .029.138.228.305.444.168.216.372.532.454.702.083.17.176.325.209.345.072.044.412.754.412.86 0 .041.062.196.137.344.075.147.216.542.314.876.662 2.275.482 4.82-.486 6.884-.294.625-.738 1.365-.977 1.626-.088.097-.16.216-.16.265 0 .117-1.814 1.915-2.2 2.18a8.398 8.398 0 01-.504.321 2.17 2.17 0 00-.327.227c-.069.062-.54.322-1.047.579-.72.363-.928.5-.945.618-.02.134.574 1.397.785 1.67.078.1.612 1.102 1.067 2 .125.246.265.495.31.551.074.09.836 1.52 1.123 2.104.056.114.14.254.185.31.046.057.31.539.587 1.07.277.53.574 1.09.66 1.241.087.152.24.431.339.621.1.19.35.655.557 1.035.207.379.426.798.487.93.124.268.174.357.365.646a1.5 1.5 0 01.176.505c.054.357-.06.587-.383.77-.11.063-.2.153-.2.2 0 .068-.613.087-2.829.087s-2.828-.019-2.828-.086c0-.048-.086-.136-.19-.195-.153-.088-.805-1.341-3.358-6.45-1.742-3.487-3.246-6.425-3.34-6.53l-.173-.19h-2.563c-2.4 0-2.57.009-2.678.128-.105.116-.116.66-.131 6.385l-.017 6.258-.293.274c-.161.15-.293.303-.293.34 0 .04-.936.066-2.483.066-1.94 0-2.483-.019-2.484-.086zm15.087-18.727a6.346 6.346 0 001.719-1.033c.504-.444 1.402-1.9 1.405-2.28a1.8 1.8 0 01.096-.394c.114-.33.099-1.798-.02-2.02a.665.665 0 01-.077-.252c0-.192-.43-1.023-.77-1.49a5.193 5.193 0 00-.788-.82c-.489-.391-1.396-.853-1.938-.986-.5-.122-8.924-.157-9-.037-.03.048-.056 2.183-.056 4.746-.001 3.636.018 4.678.085 4.746.068.069.999.081 4.432.06l4.345-.027zm24.781 18.726c0-.048-.067-.118-.15-.155a.956.956 0 01-.293-.263c-.143-.194-.143-.23-.178-8.107l-.034-7.913-.16-.204a14.081 14.081 0 01-.498-.722c-.185-.284-.43-.641-.544-.793a7.004 7.004 0 01-.35-.517 9.717 9.717 0 00-.311-.483l-.325-.47a17.553 17.553 0 00-.416-.567c-.142-.186-.26-.363-.26-.392-.001-.03-.065-.132-.142-.226a9.838 9.838 0 01-.64-.925 2.607 2.607 0 00-.258-.356c-.072-.078-.131-.164-.131-.191 0-.054-.337-.555-.639-.949-.104-.136-.189-.265-.189-.286 0-.059-.467-.74-.676-.985-.102-.12-.24-.31-.307-.42-.066-.11-.205-.327-.31-.484l-.478-.724a11.79 11.79 0 00-.448-.642 5.191 5.191 0 01-.298-.427 15.41 15.41 0 00-.432-.642c-.16-.23-.293-.437-.293-.462 0-.025-.101-.173-.226-.329-.207-.26-.658-.908-1.084-1.559a58.92 58.92 0 00-.587-.863 26.03 26.03 0 01-.554-.829 3.465 3.465 0 00-.247-.355c-.178-.21-.406-.706-.406-.886 0-.099.105-.286.25-.446l.25-.277h2.742c2.292 0 2.783.018 2.992.105.138.057.25.132.25.166s.118.212.263.396c.144.183.283.38.309.437.026.057.186.29.357.517.17.228.37.523.443.656.072.132.213.316.311.408.099.092.18.2.18.242.002.04.065.151.14.246.174.216.88 1.245 1.072 1.56.08.13.227.323.328.429.101.105.184.218.184.25s.077.16.172.285c.095.124.173.246.173.271 0 .025.108.173.241.328.133.155.241.311.241.347 0 .035.086.165.19.287.104.123.245.313.312.423.067.11.246.37.398.58.384.526 1.038 1.48 1.209 1.763.078.13.21.308.293.396.083.088.15.19.15.226 0 .036.117.21.26.385.141.175.31.415.375.533.141.257.433.3.504.074.025-.076.166-.28.315-.452s.27-.353.27-.401c0-.05.066-.148.146-.22.08-.073.205-.24.278-.373.074-.133.227-.366.34-.517.114-.152.258-.354.321-.449.063-.095.213-.296.333-.448.12-.152.27-.37.334-.483a7.73 7.73 0 01.515-.764c.034-.041.142-.196.24-.345.098-.149.304-.441.459-.65.154-.208.334-.468.4-.578.065-.109.184-.28.264-.379.08-.1.193-.274.251-.388.058-.114.172-.266.251-.338.08-.073.145-.159.145-.192s.123-.222.274-.42l.404-.533a3.9 3.9 0 00.245-.38c.063-.113.254-.392.424-.62.17-.228.479-.662.687-.966.207-.303.439-.629.515-.724.076-.095.139-.21.14-.255 0-.045.105-.162.232-.259l.23-.176h5.734l.214.244c.278.317.295.727.044 1.074a5.71 5.71 0 00-.303.476 1.991 1.991 0 01-.314.408c-.098.092-.179.208-.179.257 0 .049-.085.19-.19.315-.277.33-.637.86-.637.937 0 .036-.052.109-.115.16-.064.053-.218.25-.343.44-.126.19-.351.516-.502.725-.15.208-.318.472-.372.586a1.265 1.265 0 01-.245.338c-.081.072-.148.17-.148.216 0 .046-.044.121-.099.166-.054.046-.305.389-.556.763-.252.374-.502.717-.556.762-.055.045-.1.117-.102.16-.002.043-.095.185-.207.317-.112.131-.204.275-.204.319 0 .044-.052.123-.115.175-.063.052-.218.25-.343.44-.125.19-.352.515-.503.724a4.265 4.265 0 00-.35.552 1.74 1.74 0 01-.27.379 5.158 5.158 0 00-.451.62c-.142.228-.394.6-.56.828a8.077 8.077 0 00-.434.656 1.73 1.73 0 01-.278.372c-.08.073-.145.17-.145.216 0 .047-.046.123-.102.17-.103.084-.908 1.242-1.18 1.697-.08.132-.243.342-.363.465-.12.124-.217.274-.217.334s-.051.15-.113.202c-.123.102-.403.5-.594.844-.113.204-.12.723-.12 8.073v7.855l-.342.335-.34.336h-2.419c-1.901 0-2.418-.019-2.418-.087zm43.803-.18c-1.542-.159-3.508-.67-4.66-1.21a8.505 8.505 0 00-.636-.276c-.14-.045-.542-.268-1.127-.627a20.45 20.45 0 00-.41-.245 5.22 5.22 0 01-.455-.314 8.244 8.244 0 00-.441-.317 5.162 5.162 0 01-.536-.462c-.2-.193-.394-.352-.43-.352-.036 0-.115-.096-.177-.215-.187-.363-.054-.742.698-1.98.169-.279.307-.53.307-.56 0-.03.057-.128.127-.218s.22-.336.334-.544c.529-.967.746-1.174 1.263-1.205.33-.02.465.038 1.156.497.33.219.818.526 1.084.684.548.324 2.25 1.196 2.334 1.196.03 0 .2.067.379.149.178.081.417.174.53.205 1.35.375 1.57.417 2.346.454.748.035.897.02 1.545-.147.926-.24 1.44-.513 2.042-1.084a3.586 3.586 0 001.063-3.384c-.04-.201-.211-.647-.379-.99-.25-.513-.41-.73-.885-1.201-.32-.317-.637-.608-.707-.646a4.358 4.358 0 01-.403-.284 4.765 4.765 0 00-.586-.378 3.12 3.12 0 01-.422-.259c-.195-.167-2.836-1.401-2.998-1.401-.028 0-.255-.096-.505-.213a53.89 53.89 0 00-.766-.351c-.59-.263-1.167-.566-2.172-1.14a7.458 7.458 0 00-.414-.22c-.076-.035-.304-.206-.506-.38-.202-.175-.399-.317-.437-.317-.084 0-1.562-1.418-1.977-1.897-.458-.529-1.217-1.754-1.299-2.098a.861.861 0 00-.094-.247c-.11-.144-.408-1.126-.511-1.68-.147-.787-.147-2.794-.001-3.437.249-1.096.79-2.55.996-2.677.038-.024.155-.22.26-.436.272-.565 1.879-2.203 2.534-2.584.266-.155.545-.332.62-.393.342-.276 1.767-.83 2.725-1.06 1.459-.35 1.813-.39 3.484-.39 1.394 0 1.699.021 2.517.172 1.892.349 3.18.773 4.794 1.58.607.302 1.2.622 1.317.71.117.087.244.159.281.159.037 0 .14.077.23.172.089.095.212.173.274.173.146 0 .594.463.687.711.145.384.076.773-.223 1.254-.047.076-.302.46-.567.852-.265.392-.56.83-.654.975-.748 1.134-.773 1.16-1.226 1.336-.447.173-.553.146-1.233-.31-.15-.1-.441-.268-.648-.375-.207-.106-.5-.271-.652-.366-.325-.204-1.15-.628-1.223-.628-.027 0-.247-.09-.488-.201-.616-.282-1.864-.668-2.488-.768a7.162 7.162 0 00-1.303-.05c-.906.043-1.303.166-2.38.736-.25.133-1.023.951-1.179 1.248a4.65 4.65 0 00-.39 1.23c-.08.506.18 1.65.452 1.996.075.095.136.201.136.237 0 .215 1.393 1.547 2.026 1.938.379.234 2.187 1.152 2.269 1.152.061 0 .458.175 1.095.483.215.103.473.209.574.234.1.026.498.2.883.389.384.188.731.343.771.345.314.01 3.303 1.811 3.658 2.203.07.077.162.14.207.14.099 0 1.967 1.838 1.967 1.935 0 .038.127.23.283.427.343.433.963 1.7 1.156 2.362a10 10 0 01.403 2.517c.03.835.015.988-.233 2.208-.166.815-.633 1.968-1.04 2.565-.124.18-.225.346-.225.369 0 .105-.65.876-1.213 1.44-.868.867-1.536 1.346-2.671 1.917-1.164.585-2.878 1.098-4 1.196-1.619.358-2.665.094-3.837-.03zm-20.463-19.64c-.396-.206-.585-.947-.32-1.256.13-.152.676-.357.95-.357.362 0 .926-.353 1.419-.888.265-.288.53-.618.587-.732.304-.603.513-1.602.417-1.987l-.043-.171-1.018.035c-1.083.037-1.401-.022-2.205-.405-.428-.203-1.445-1.253-1.677-1.73-.373-.767-.448-1.118-.443-2.089.005-.946.092-1.342.446-2.039.278-.548.906-1.286 1.338-1.574.966-.644 1.596-.836 2.753-.836.666 0 .872.028 1.32.179.619.208 1.153.465 1.277.614.048.057.123.104.168.104.097 0 1.005.868 1.005.96 0 .035.073.152.161.26.25.303.805 1.426.805 1.63 0 .054.052.22.116.366.088.203.123.544.146 1.418.038 1.46-.062 2.333-.374 3.276-.23.69-.81 1.903-1.145 2.388-.192.278-1.72 1.842-1.8 1.842-.033 0-.157.07-.276.155-.355.254-.945.538-1.495.72-.679.223-1.79.284-2.112.117z" fill="#cdcdcd"/></svg>