<svg width="144" height="50" xmlns="http://www.w3.org/2000/svg"><path d="M0 6.14v5.43h5.92l-.098 13.425-.148 13.474-2.812.148L0 38.765v9.822h33.057v-9.822l-3.059-.148-3.108-.148V11.817l3.108-.148 3.059-.148V.71H0zm35.337 10.671v4.95l2.147.148 2.098.149V38.39l-2.098.149-2.147.148v9.851h25.971v-9.85l-2.348-.148-2.397-.149-.15-5.444c-.15-4.405 0-5.742.7-7.078 1.947-3.613 7.69-4.9 10.338-2.277 1.648 1.634 1.948 3.118 1.748 9.602l-.15 5.197-2.497.149-2.497.148v9.85h25.721v-4.702c0-4.9.45-5.742 1.698-3.366 2.797 5.346 11.287 9.058 20.677 9.058 7.291 0 13.285-1.98 16.431-5.395 1.498-1.633 3.646-5.89 3.646-7.325 0-1.04-.2-1.09-6.742-1.238l-6.693-.148-.799 1.98c-.899 2.425-2.897 3.712-5.744 3.712-2.846 0-5.244-1.535-6.093-3.861-.899-2.574-.849-11.334.1-13.166 1.748-3.415 6.243-4.553 9.29-2.425 1.248.89 1.748 1.782 2.297 3.96.4 1.583.9 2.87 1.149 2.87 2.147-.099 10.788-.841 11.886-1.04 1.349-.296 1.399-.395 1.1-2.078-.45-2.277-2.298-5.89-3.996-7.672-3.346-3.514-8.64-5.395-15.233-5.494-10.788-.148-19.978 4.653-22.775 11.83-1.048 2.672-1.298 8.71-.549 12.473l.45 2.128H85.88l-.2-8.563c-.15-8.414-.2-8.662-1.648-11.532-1.298-2.525-1.898-3.119-4.445-4.356-2.447-1.237-3.596-1.534-7.491-1.683-3.197-.148-5.344.05-7.142.545-2.947.89-6.843 3.316-7.642 4.8-.999 1.832-1.498.99-1.498-2.474v-3.465H35.337v4.9zm100.479 20.471c-1.697.69-3.588 3.4-3.588 5.124 0 2.266 1.842 4.828 3.975 5.567 4.606 1.527 8.824-2.907 6.982-7.39-1.213-2.956-4.558-4.483-7.37-3.3z" fill="#00BFFF" fill-rule="evenodd"/></svg>