<svg width="100" height="84" xmlns="http://www.w3.org/2000/svg"><g fill="#00BFFF"><path d="M24.45 26.13h-4.36V7.837h4.36V0H1.197v7.837H5.56V26.14H1.197v7.284H24.45zm19.402.01h-3.468v-6.31c0-2.672 2.02-4.638 4.692-4.638 2.109 0 3.753 1.028 3.753 3.325v7.622h-3.378v7.284h17.766v-7.167c2.43 5.38 8.686 7.81 15.022 7.81 5.175 0 12.35-1.242 13.96-9.196l.08-.84-9.455-.009h-.322c0 2.69-1.957 3.96-4.164 3.96-4.218 0-4.549-3.513-4.549-6.89V21c0-3.378.33-6.89 4.549-6.89 3.324 0 3.887 2.877 4.003 5.603l9.822-1.081C90.965 7.185 78.248 8.016 78.248 8.016c-8.105 0-16.076 3.986-16.076 13.02 0 1.922.366 3.62 1.01 5.094h-2.905v-9.633c0-6.14-4.504-8.392-10.036-8.392-3.94 0-6.934 1.082-9.562 4.076-.187.232-.42.518-.652.706V7.855h-14.37v7.292h3.28V26.13h-3.28v7.293h18.195v-7.284zm18.339-5.04v-.033.033z"/><path d="M95.612 33.539A4.134 4.134 0 0099.75 29.4a4.142 4.142 0 00-4.138-4.146 4.136 4.136 0 00-4.138 4.146 4.129 4.129 0 004.138 4.138zm-14.388 3.128c-7.23-.099-12.377 2.797-15.674 7.4-2.842-4.21-7.453-7.311-14.683-7.4-5.702-.08-10.116 1.707-13.342 4.727v.018-.018l.384-3.69H4.915L2.458 61.768l11.063 1.359c.777-1.162 1.814-2.851 5.433-2.851 4.594 0 6.792 2.913 6.792 6.926 0 3.494-1.876 6.926-6.595 6.926-2.654 0-4.79-1.234-5.567-3.754-.322-1.036-.322-2.136-.322-3.235L.062 68.5c.715 3.36 1.359 6.47 4.21 9.446 5.049 5.111 12.421 5.111 14.816 5.111 3.754 0 10.68-.321 15.532-5.308.33-.33.644-.68.939-1.037 0-.009.008-.009.008-.018 0 .01-.008.01-.008.018 3.378 4.165 8.293 6.408 14.084 6.408 7.292 0 12.243-3.101 15.397-7.57 3.378 4.907 8.65 7.57 14.96 7.57 14.817 0 19.991-12.815 19.991-23.879 0-9.115-3.69-22.386-18.767-22.573zM65.6 44.129c0-.016-.016-.016-.016-.033 0 0 .016.017.016.033zm-43.276 7.158c-2.395 0-5.309.456-7.248 1.233-.456.197-.903.456-1.358.715l.643-6.273h19.124-.018c-.965 1.948-1.68 4.101-2.144 6.39-2.583-1.341-5.648-2.065-9-2.065zm27.765 22.708c-2.913 0-4.852-2.136-5.692-5.568-.519-2.332-.581-4.79-.581-7.185 0-4.397.26-10.16 1.94-13.003 1.232-2.001 3.11-2.779 4.593-2.779 3.1 0 4.718 2.52 5.37 5.309.644 2.779.778 7.631.778 9.642 0 6.336-.974 13.584-6.408 13.584zm30.358 0c-2.913 0-4.853-2.136-5.693-5.568-.518-2.332-.58-4.79-.58-7.185 0-4.397.259-10.16 1.939-13.003 1.233-2.001 3.11-2.779 4.593-2.779 3.11 0 4.727 2.52 5.37 5.309.644 2.779.778 7.631.778 9.642 0 6.336-.974 13.584-6.407 13.584z"/></g></svg>