<svg xmlns="http://www.w3.org/2000/svg" width="782.74" height="1106.5" viewBox="0 0 207.1 292.761"><path d="M26.658 290.851c-1.695-1.695-1.91-3.184-1.91-13.224 0-14.124.262-14.476 10.775-14.476h7.281l.285-24.259c.266-22.686.409-24.397 2.195-26.399 1.051-1.177 3.2-2.698 4.776-3.379 1.576-.68 6.51-4.92 10.964-9.42l8.098-8.181H91.61v-38.027l-9.79-6.973c-5.385-3.835-14.09-11.091-19.343-16.125-5.253-5.034-12.657-11.648-16.452-14.698C19.035 94.005 1.928 64.506.21 36.688-.1 31.65-.06 25.955.3 24.032l.656-3.496h34.982l.623-5.96c.343-3.279 1.586-7.9 2.763-10.269L41.464 0h124.172l2.14 4.307c1.177 2.37 2.42 6.99 2.763 10.269l.623 5.96h34.983l.656 3.496c.36 1.923.401 7.618.09 12.656-1.719 27.818-18.826 57.317-45.816 79.002-3.795 3.05-11.199 9.664-16.452 14.698-5.254 5.034-13.958 12.29-19.343 16.125l-9.79 6.973v38.027h22.488l8.098 8.182c4.454 4.5 9.388 8.738 10.964 9.42 1.576.68 3.725 2.2 4.776 3.378 1.786 2.002 1.929 3.713 2.195 26.4l.285 24.258h7.447c10.336 0 10.609.377 10.609 14.642 0 9.874-.218 11.366-1.91 13.058-1.878 1.878-3.184 1.91-76.892 1.91s-75.014-.032-76.892-1.91zm145.187-8.596c1.061-1.062 1.91-3.184 1.91-4.776 0-1.592-.849-3.715-1.91-4.776-1.874-1.874-3.184-1.91-68.295-1.91s-66.421.036-68.295 1.91c-1.061 1.061-1.91 3.184-1.91 4.776 0 1.592.849 3.714 1.91 4.776 1.874 1.873 3.184 1.91 68.295 1.91s66.421-.037 68.295-1.91zm-17.739-19.65c2.22-2.22 2.232-40.013.014-43.18l-1.487-2.122H54.467l-1.487 2.122c-2.218 3.167-2.206 40.96.014 43.18 1.326 1.326 7.234 1.501 50.556 1.501 43.322 0 49.23-.175 50.556-1.5zm-73.241-17.679c-2.42-1.41-2.192-6.264.36-7.63 3.188-1.706 6.565.264 6.565 3.832 0 3.98-3.407 5.848-6.925 3.798zm19.012-.715c-2.054-2.27-2.001-4.263.166-6.224 2.27-2.055 4.263-2.002 6.225.166 2.054 2.27 2.001 4.262-.166 6.224-2.27 2.055-4.263 2.002-6.225-.166zm18.24.715c-2.42-1.41-2.192-6.264.36-7.63 3.188-1.706 6.564.264 6.564 3.832 0 3.98-3.406 5.848-6.925 3.798zm18.35-37.414c1.322-2.364 1.322-2.89 0-5.253l-1.469-2.627-31.007-.262c-30.658-.26-31.025-.24-32.678 1.777-2.067 2.522-2.116 4.589-.176 7.36l1.496 2.135 31.183-.251 31.182-.252zm-28.619-38.426v-22.428l4.06-2.046c10.942-5.515 24.098-17.527 31.608-28.862 7.584-11.444 13.475-27.378 15.957-43.157 2.254-14.331 1.285-40.171-2.105-56.116l-.964-4.537H50.696l-.964 4.537c-3.39 15.945-4.359 41.785-2.105 56.116 2.482 15.779 8.374 31.713 15.957 43.157 7.51 11.335 20.666 23.347 31.608 28.862l4.06 2.046v44.855h8.596zM92.036 70.069l.672-6.823-4.963-5.025-4.962-5.025 5.607-1.113c3.085-.612 6.345-1.322 7.244-1.578.9-.255 3.041-3.02 4.758-6.142 1.717-3.123 3.353-5.678 3.636-5.678.282 0 1.919 2.555 3.635 5.678 1.717 3.122 3.858 5.887 4.758 6.142.9.256 4.16.966 7.244 1.578l5.608 1.113-4.963 5.025-4.963 5.025.672 6.823c.47 4.756.353 6.823-.385 6.823-.581 0-3.43-1.164-6.332-2.587l-5.274-2.587-5.275 2.587c-2.901 1.423-5.75 2.587-6.332 2.587-.737 0-.854-2.067-.385-6.823zM39.578 88.237C36.202 77.606 34.3 62.716 34.3 46.92V32.954H12.054l.585 6.263c1.726 18.474 9.883 36.046 24.049 51.8 2.498 2.78 4.685 4.91 4.859 4.736.174-.175-.712-3.557-1.969-7.516zM176.867 83.1c9.892-13.034 16.177-28.71 17.594-43.883l.585-6.263H172.8l-.005 14.088c-.008 18.613-2.322 33.696-7.323 47.728-1.034 2.9 5.127-3.409 11.396-11.67z" fill="#ffd645"/></svg>